/* XPM */
static char * close_pressed_xpm[] = {
"24 24 35 1",
" 	c None",
".	c #373737",
"+	c #2F2F2F",
"@	c #313838",
"#	c #3C6667",
"$	c #438486",
"%	c #469295",
"&	c #428285",
"*	c #3B6466",
"=	c #375152",
"-	c #459194",
";	c #47979A",
">	c #375253",
",	c #479699",
"'	c #479295",
")	c #323838",
"!	c #2F3131",
"~	c #395859",
"{	c #469699",
"]	c #395A5B",
"^	c #303030",
"/	c #438587",
"(	c #3B6264",
"_	c #385657",
":	c #385758",
"<	c #3A5F60",
"[	c #3B6162",
"}	c #3A5E5F",
"|	c #375456",
"1	c #3B6365",
"2	c #3C6668",
"3	c #3B6465",
"4	c #469194",
"5	c #313737",
"6	c #428385",
"........................",
"++++++++++++++++++++++++",
"++++++++++++++++++++++++",
"++++++++++++++++++++++++",
"++++++++++++++++++++++++",
"++++++++@#$%%&*@++++++++",
"+++++++=-;;;;;;->+++++++",
"++++++=,;;;;;;;;,>++++++",
"+++++@-;;';;;;%;;%)+++++",
"+++++#;;;!~{{]^;;;*+++++",
"+++++/;;;(+_:+<;;;&+++++",
"+++++%;;;;[++};;;;-+++++",
"+++++-;;;,|++>,;;;%+++++",
"+++++$;;;~+11+:;;;&+++++",
"+++++*;;;@2;;2@;;;3+++++",
"+++++@-;;;;;;;;;;45+++++",
"++++++>,;;;;;;;;,=++++++",
"+++++++>%;;;;;;4=+++++++",
"++++++++)*6%%635++++++++",
"++++++++++++++++++++++++",
"++++++++++++++++++++++++",
"++++++++++++++++++++++++",
"++++++++++++++++++++++++",
"++++++++++++++++++++++++"};
