<?xml version="1.0" encoding="UTF-8" standalone="no"?>
<svg
   xmlns:dc="http://purl.org/dc/elements/1.1/"
   xmlns:cc="http://creativecommons.org/ns#"
   xmlns:rdf="http://www.w3.org/1999/02/22-rdf-syntax-ns#"
   xmlns:svg="http://www.w3.org/2000/svg"
   xmlns="http://www.w3.org/2000/svg"
   xmlns:xlink="http://www.w3.org/1999/xlink"
   xmlns:sodipodi="http://sodipodi.sourceforge.net/DTD/sodipodi-0.dtd"
   xmlns:inkscape="http://www.inkscape.org/namespaces/inkscape"
   height="48"
   width="48"
   version="1.1"
   id="svg60"
   sodipodi:docname="user-desktop.svg"
   inkscape:version="0.92.5 (2060ec1f9f, 2020-04-08)">
  <metadata
     id="metadata64">
    <rdf:RDF>
      <cc:Work
         rdf:about="">
        <dc:format>image/svg+xml</dc:format>
        <dc:type
           rdf:resource="http://purl.org/dc/dcmitype/StillImage" />
      </cc:Work>
    </rdf:RDF>
  </metadata>
  <sodipodi:namedview
     pagecolor="#ffffff"
     bordercolor="#666666"
     borderopacity="1"
     objecttolerance="10"
     gridtolerance="10"
     guidetolerance="10"
     inkscape:pageopacity="0"
     inkscape:pageshadow="2"
     inkscape:window-width="1366"
     inkscape:window-height="668"
     id="namedview62"
     showgrid="false"
     inkscape:zoom="4.9166667"
     inkscape:cx="24"
     inkscape:cy="24"
     inkscape:window-x="0"
     inkscape:window-y="24"
     inkscape:window-maximized="1"
     inkscape:current-layer="svg60" />
  <defs
     id="defs34">
    <linearGradient
       xlink:href="#a"
       id="d"
       gradientUnits="userSpaceOnUse"
       gradientTransform="matrix(1.08566 0 0 1.13815 -341.537 -63.45)"
       x1="321"
       y1="70"
       x2="367"
       y2="105" />
    <linearGradient
       id="a">
      <stop
         offset="0"
         stop-color="#666"
         id="stop3" />
      <stop
         offset="1"
         stop-color="#7a7a7a"
         id="stop5" />
    </linearGradient>
    <linearGradient
       xlink:href="#b"
       id="c"
       gradientUnits="userSpaceOnUse"
       gradientTransform="matrix(1.08566 0 0 1.13815 -341.537 -63.45)"
       x1="321"
       y1="106"
       x2="367"
       y2="63" />
    <linearGradient
       id="b">
      <stop
         offset="0"
         stop-color="#2c001e"
         id="stop9" />
      <stop
         offset=".109"
         stop-color="#2c001e"
         id="stop11" />
      <stop
         offset=".187"
         stop-color="#370626"
         id="stop13" />
      <stop
         offset=".298"
         stop-color="#55163b"
         id="stop15" />
      <stop
         offset=".372"
         stop-color="#772953"
         id="stop17" />
      <stop
         offset=".447"
         stop-color="#7c2b51"
         id="stop19" />
      <stop
         offset=".524"
         stop-color="#8b314b"
         id="stop21" />
      <stop
         offset=".596"
         stop-color="#8b314b"
         id="stop23" />
      <stop
         offset=".669"
         stop-color="#a33a41"
         id="stop25" />
      <stop
         offset=".798"
         stop-color="#c44732"
         id="stop27" />
      <stop
         offset=".913"
         stop-color="#e65524"
         id="stop29" />
      <stop
         offset="1"
         stop-color="#e65524"
         id="stop31" />
    </linearGradient>
    <linearGradient
       inkscape:collect="always"
       xlink:href="#linearGradient1674"
       id="linearGradient962"
       gradientUnits="userSpaceOnUse"
       gradientTransform="matrix(0.11328125,0,0,0.11327801,-4.00068,-9.4906259)"
       x1="512"
       y1="397.99393"
       x2="-1.0000001e-06"
       y2="125.99394" />
    <linearGradient
       inkscape:collect="always"
       id="linearGradient1674">
      <stop
         id="stop1670"
         offset="0"
         style="stop-color:#ff6716;stop-opacity:1" />
      <stop
         id="stop1672"
         offset="1"
         style="stop-color:#8c00a6;stop-opacity:1" />
    </linearGradient>
  </defs>
  <path
     inkscape:connector-curvature="0"
     style="color:#000000;display:inline;overflow:visible;visibility:visible;fill:url(#linearGradient962);fill-opacity:1;fill-rule:nonzero;stroke:none;stroke-width:1;marker:none;enable-background:accumulate"
     d="m 11.74805,4.9986076 c -2.22703,0 -3.98101,0.04964 -5.41993,0.291016 C 4.88786,5.5312266 3.71374,5.9835846 2.85156,6.8443106 1.98908,7.7053336 1.53496,8.8809616 1.29297,10.318919 1.20683,10.830793 1.15149,11.399701 1.10742,11.998607 1.02784,13.08027 1,14.298404 1,15.729076 v 18.539062 c 0,2.222843 0.0514,3.974746 0.29297,5.414063 0.24191,1.441106 0.69492,2.616716 1.55664,3.480466 0.86187,0.86391 2.03884,1.31896 3.48047,1.5586 1.43916,0.23922 3.19276,0.2882 5.41992,0.27734 H 24 36.24805 c 2.22714,0.0108 3.98268,-0.0381 5.42187,-0.27734 1.44163,-0.23964 2.61664,-0.69468 3.47852,-1.5586 0.86171,-0.86375 1.31473,-2.03935 1.55664,-3.480466 C 46.94669,38.242859 47,36.490974 47,34.268138 V 15.729076 c 0,-1.430636 -0.0273,-2.648824 -0.10742,-3.730469 -0.0444,-0.598936 -0.10136,-1.16779 -0.1875,-1.679688 C 46.4631,8.8809596 46.01093,7.7053336 45.14844,6.8443106 44.28626,5.9835846 43.1102,5.5312266 41.66992,5.2896236 40.23999,5.0497446 38.7096,4.9986076 36.25195,4.9986076 H 24 Z"
     id="path958"
     inkscape:export-xdpi="95.996666"
     inkscape:export-ydpi="95.996666" />
  <path
     style="display:inline;opacity:0.3;vector-effect:none;fill:#000000;fill-opacity:1;stroke:none;stroke-width:0.99999994;stroke-linecap:butt;stroke-linejoin:miter;stroke-miterlimit:4;stroke-dasharray:none;stroke-dashoffset:0;stroke-opacity:1;enable-background:new"
     d="m 10.67329,5.0005606 c -1.97334,0.0018 -3.54481,0.052 -4.82954,0.289063 C 4.53442,5.5312266 3.46704,5.9835846 2.68324,6.8443106 1.89916,7.7053336 1.48633,8.8809626 1.26634,10.318919 1.18806,10.830795 1.13772,11.399701 1.09765,11.998607 1.02531,13.080271 1,14.298404 1,15.729076 v 18.539062 c 0,2.222843 0.0467,3.974742 0.26634,5.414063 0.21991,1.441096 0.63174,2.616716 1.41512,3.480466 0.78352,0.86391 1.85349,1.31896 3.16407,1.5586 1.30832,0.23922 2.90251,0.2882 4.9272,0.27734 H 11 V 5.0005606 Z"
     id="rect1767-6"
     inkscape:connector-curvature="0"
     sodipodi:nodetypes="cccccssccccccc"
     inkscape:export-xdpi="95.996666"
     inkscape:export-ydpi="95.996666" />
</svg>
