<?xml version="1.0" encoding="UTF-8" standalone="no"?>
<!-- Created with Inkscape (http://www.inkscape.org/) -->

<svg
   xmlns:dc="http://purl.org/dc/elements/1.1/"
   xmlns:cc="http://creativecommons.org/ns#"
   xmlns:rdf="http://www.w3.org/1999/02/22-rdf-syntax-ns#"
   xmlns:svg="http://www.w3.org/2000/svg"
   xmlns="http://www.w3.org/2000/svg"
   xmlns:sodipodi="http://sodipodi.sourceforge.net/DTD/sodipodi-0.dtd"
   xmlns:inkscape="http://www.inkscape.org/namespaces/inkscape"
   sodipodi:docname="calendar-arrow-left-hover.svg"
   height="16"
   id="svg7384"
   inkscape:version="0.92.5 (2060ec1f9f, 2020-04-08)"
   version="1.1"
   width="16">
  <metadata
     id="metadata90">
    <rdf:RDF>
      <cc:Work
         rdf:about="">
        <dc:format>image/svg+xml</dc:format>
        <dc:type
           rdf:resource="http://purl.org/dc/dcmitype/StillImage" />
        <dc:title>Gnome Symbolic Icon Theme</dc:title>
      </cc:Work>
    </rdf:RDF>
  </metadata>
  <sodipodi:namedview
     inkscape:bbox-nodes="true"
     inkscape:bbox-paths="true"
     bordercolor="#666666"
     borderopacity="1"
     inkscape:current-layer="layer12"
     inkscape:cx="7.3546086"
     inkscape:cy="7.9323223"
     gridtolerance="10"
     inkscape:guide-bbox="true"
     guidetolerance="10"
     id="namedview88"
     inkscape:object-nodes="false"
     inkscape:object-paths="false"
     objecttolerance="10"
     pagecolor="#ffffff"
     inkscape:pageopacity="0"
     inkscape:pageshadow="2"
     showborder="true"
     showgrid="true"
     showguides="true"
     inkscape:snap-bbox="true"
     inkscape:snap-bbox-midpoints="false"
     inkscape:snap-global="true"
     inkscape:snap-grids="true"
     inkscape:snap-nodes="true"
     inkscape:snap-others="false"
     inkscape:snap-to-guides="true"
     inkscape:window-height="1033"
     inkscape:window-maximized="1"
     inkscape:window-width="1920"
     inkscape:window-x="0"
     inkscape:window-y="0"
     inkscape:zoom="22.627417"
     inkscape:snap-bbox-edge-midpoints="true">
    <inkscape:grid
       empspacing="2"
       enabled="true"
       id="grid4866"
       originx="141"
       originy="530"
       snapvisiblegridlinesonly="true"
       spacingx="1"
       spacingy="1"
       type="xygrid"
       visible="true" />
    <inkscape:grid
       color="#000000"
       empcolor="#000000"
       empopacity="0"
       empspacing="4"
       enabled="true"
       id="grid5968"
       opacity="0.1254902"
       originx="141"
       originy="530"
       snapvisiblegridlinesonly="true"
       spacingx="0.5"
       spacingy="0.5"
       type="xygrid"
       visible="true" />
  </sodipodi:namedview>
  <title
     id="title9167">Gnome Symbolic Icon Theme</title>
  <defs
     id="defs7386" />
  <g
     inkscape:groupmode="layer"
     id="layer9"
     inkscape:label="status"
     style="display:inline"
     transform="translate(-100.0002,-747)" />
  <g
     inkscape:groupmode="layer"
     id="layer10"
     inkscape:label="devices"
     transform="translate(-100.0002,-747)" />
  <g
     inkscape:groupmode="layer"
     id="layer11"
     inkscape:label="apps"
     transform="translate(-100.0002,-747)" />
  <g
     inkscape:groupmode="layer"
     id="layer13"
     inkscape:label="places"
     transform="translate(-100.0002,-747)" />
  <g
     inkscape:groupmode="layer"
     id="layer14"
     inkscape:label="mimetypes"
     transform="translate(-100.0002,-747)" />
  <g
     inkscape:groupmode="layer"
     id="layer15"
     inkscape:label="emblems"
     style="display:inline"
     transform="translate(-100.0002,-747)" />
  <g
     inkscape:groupmode="layer"
     id="g71291"
     inkscape:label="emotes"
     style="display:inline"
     transform="translate(-100.0002,-747)" />
  <g
     inkscape:groupmode="layer"
     id="g4953"
     inkscape:label="categories"
     style="display:inline"
     transform="translate(-100.0002,-747)" />
  <g
     inkscape:groupmode="layer"
     id="layer12"
     inkscape:label="actions"
     style="display:inline"
     transform="translate(-100.0002,-747)">
    <path
       style="color:#000000;font-style:normal;font-variant:normal;font-weight:normal;font-stretch:normal;font-size:medium;line-height:normal;font-family:Sans;-inkscape-font-specification:Sans;text-indent:0;text-align:start;text-decoration:none;text-decoration-line:none;letter-spacing:normal;word-spacing:normal;text-transform:none;direction:ltr;block-progression:tb;writing-mode:lr-tb;baseline-shift:baseline;text-anchor:start;display:inline;overflow:visible;visibility:visible;fill:#596eb5;fill-opacity:1;stroke:none;stroke-width:2;marker:none;enable-background:accumulate"
       d="m 109.82336,751.00006 a 0.67182557,0.66502524 0 0 0 -0.10367,0.009 0.67182557,0.66502524 0 0 0 -0.39887,0.18702 l -3.35878,3.32479 -0.46184,0.47795 0.46184,0.47792 3.35878,3.32481 a 0.68281953,0.67590797 0 0 0 0.698,0.16363 c 0.0374,0.0143 0.0779,0.0233 0.1207,0.0233 0.18608,0 0.33589,-0.14829 0.33589,-0.33248 0,-0.0423 -0.009,-0.0823 -0.0236,-0.11948 a 0.68281953,0.67590797 0 0 0 -0.16531,-0.69094 l -2.876,-2.84689 2.87597,-2.84686 a 0.67182557,0.66502524 0 0 0 0.17056,-0.72082 c 0.008,-0.0292 0.0185,-0.058 0.0185,-0.0896 0,-0.18421 -0.14978,-0.33249 -0.33587,-0.33249 -0.0395,0 -0.0765,0.01 -0.11152,0.022 A 0.67182557,0.66502524 0 0 0 109.82334,751 Z"
       id="path6040"
       inkscape:connector-curvature="0" />
    <path
       style="opacity:1;fill:#ffff00;fill-opacity:1;stroke-width:0.04419417"
       d="M 9.6060308,11.937943 C 9.4835767,11.894171 8.9300092,11.377352 7.495759,9.9677611 6.426409,8.9167963 5.5514863,8.0311177 5.5514863,7.9995864 c 0,-0.073314 3.8036796,-3.8186373 3.9662037,-3.9053544 0.076364,-0.040745 0.227162,-0.062184 0.4044839,-0.057506 0.3446871,0.00909 0.4334291,0.034906 0.4912131,0.1428764 0.07124,0.1331195 0.06195,0.630897 -0.01453,0.7788076 -0.0372,0.071946 -0.7283307,0.783055 -1.5358364,1.5802429 L 7.3948254,7.9880857 8.8771002,9.4752409 c 0.8152511,0.8179351 1.5042498,1.5305941 1.5311068,1.5836871 0.02686,0.05309 0.04883,0.2333 0.04883,0.400463 0,0.386016 -0.08368,0.497374 -0.373758,0.497374 -0.1064457,0 -0.2200233,0.0091 -0.2523949,0.02026 -0.032371,0.01114 -0.1335568,-0.0064 -0.2248563,-0.03908 z"
       id="path19"
       inkscape:connector-curvature="0"
       transform="translate(100.0002,747)" />
  </g>
</svg>
