<?xml version="1.0" encoding="UTF-8" standalone="no"?>
<svg
   xmlns:dc="http://purl.org/dc/elements/1.1/"
   xmlns:cc="http://creativecommons.org/ns#"
   xmlns:rdf="http://www.w3.org/1999/02/22-rdf-syntax-ns#"
   xmlns:svg="http://www.w3.org/2000/svg"
   xmlns="http://www.w3.org/2000/svg"
   xmlns:xlink="http://www.w3.org/1999/xlink"
   xmlns:sodipodi="http://sodipodi.sourceforge.net/DTD/sodipodi-0.dtd"
   xmlns:inkscape="http://www.inkscape.org/namespaces/inkscape"
   height="32"
   width="32"
   version="1.1"
   id="svg58"
   sodipodi:docname="user-desktop.svg"
   inkscape:version="0.92.5 (2060ec1f9f, 2020-04-08)">
  <metadata
     id="metadata62">
    <rdf:RDF>
      <cc:Work
         rdf:about="">
        <dc:format>image/svg+xml</dc:format>
        <dc:type
           rdf:resource="http://purl.org/dc/dcmitype/StillImage" />
      </cc:Work>
    </rdf:RDF>
  </metadata>
  <sodipodi:namedview
     pagecolor="#ffffff"
     bordercolor="#666666"
     borderopacity="1"
     objecttolerance="10"
     gridtolerance="10"
     guidetolerance="10"
     inkscape:pageopacity="0"
     inkscape:pageshadow="2"
     inkscape:window-width="1366"
     inkscape:window-height="668"
     id="namedview60"
     showgrid="false"
     inkscape:zoom="7.375"
     inkscape:cx="16"
     inkscape:cy="16"
     inkscape:window-x="0"
     inkscape:window-y="24"
     inkscape:window-maximized="1"
     inkscape:current-layer="svg58" />
  <defs
     id="defs34">
    <linearGradient
       xlink:href="#a"
       id="d"
       gradientUnits="userSpaceOnUse"
       gradientTransform="matrix(1.64642 0 0 1.52953 -521.197 -193.066)"
       x1="321"
       y1="139"
       x2="352"
       y2="163" />
    <linearGradient
       id="a">
      <stop
         offset="0"
         stop-color="#666"
         id="stop3" />
      <stop
         offset="1"
         stop-color="#7a7a7a"
         id="stop5" />
    </linearGradient>
    <linearGradient
       xlink:href="#b"
       id="c"
       gradientUnits="userSpaceOnUse"
       gradientTransform="matrix(1.64642 0 0 1.52953 -521.197 -193.066)"
       x1="320"
       y1="164"
       x2="352"
       y2="134" />
    <linearGradient
       id="b">
      <stop
         offset="0"
         stop-color="#2c001e"
         id="stop9" />
      <stop
         offset=".109"
         stop-color="#2c001e"
         id="stop11" />
      <stop
         offset=".187"
         stop-color="#370626"
         id="stop13" />
      <stop
         offset=".298"
         stop-color="#55163b"
         id="stop15" />
      <stop
         offset=".372"
         stop-color="#772953"
         id="stop17" />
      <stop
         offset=".447"
         stop-color="#7c2b51"
         id="stop19" />
      <stop
         offset=".524"
         stop-color="#8b314b"
         id="stop21" />
      <stop
         offset=".596"
         stop-color="#8b314b"
         id="stop23" />
      <stop
         offset=".669"
         stop-color="#a33a41"
         id="stop25" />
      <stop
         offset=".798"
         stop-color="#c44732"
         id="stop27" />
      <stop
         offset=".913"
         stop-color="#e65524"
         id="stop29" />
      <stop
         offset="1"
         stop-color="#e65524"
         id="stop31" />
    </linearGradient>
    <linearGradient
       inkscape:collect="always"
       xlink:href="#linearGradient927"
       id="linearGradient969"
       x1="336"
       y1="136"
       x2="336"
       y2="160"
       gradientUnits="userSpaceOnUse"
       gradientTransform="rotate(90,335.99998,147.99998)" />
    <linearGradient
       inkscape:collect="always"
       id="linearGradient927">
      <stop
         style="stop-color:#ffffff;stop-opacity:1;"
         offset="0"
         id="stop923" />
      <stop
         id="stop933"
         offset="0.125"
         style="stop-color:#ffffff;stop-opacity:0.09803922" />
      <stop
         id="stop931"
         offset="0.92500001"
         style="stop-color:#ffffff;stop-opacity:0.09803922" />
      <stop
         style="stop-color:#ffffff;stop-opacity:0.49803922"
         offset="1"
         id="stop925" />
    </linearGradient>
    <clipPath
       clipPathUnits="userSpaceOnUse"
       id="clipPath959">
      <path
         style="color:#000000;display:inline;overflow:visible;visibility:visible;opacity:1;fill:#46a926;fill-opacity:1;fill-rule:nonzero;stroke:none;stroke-width:2;stroke-miterlimit:4;stroke-dasharray:none;stroke-opacity:1;marker:none;enable-background:accumulate"
         d="m 330.1929,133.99999 c -5.61538,0 -6.21958,0.57678 -6.19206,6.20352 v 7.79648 7.79648 c -0.0276,5.62673 0.57668,6.20351 6.19206,6.20351 h 11.615 c 5.6154,0 6.19208,-0.5767 6.19208,-6.20351 v -7.79648 -7.79648 c 0,-5.6268 -0.5767,-6.20352 -6.19208,-6.20352 z"
         id="path961"
         inkscape:connector-curvature="0"
         sodipodi:nodetypes="scccssscsss" />
    </clipPath>
    <linearGradient
       inkscape:collect="always"
       xlink:href="#linearGradient1674"
       id="linearGradient924"
       gradientUnits="userSpaceOnUse"
       gradientTransform="matrix(0.07954524,0,0,0.07496671,-3.6618284,-7.0529013)"
       x1="459.03448"
       y1="419.23337"
       x2="35.310345"
       y2="207.36522" />
    <linearGradient
       inkscape:collect="always"
       id="linearGradient1674">
      <stop
         id="stop1670"
         offset="0"
         style="stop-color:#ff6716;stop-opacity:1" />
      <stop
         id="stop1672"
         offset="1"
         style="stop-color:#8c00a6;stop-opacity:1" />
    </linearGradient>
  </defs>
  <path
     style="color:#000000;display:inline;overflow:visible;visibility:visible;fill:url(#linearGradient924);fill-opacity:1;fill-rule:nonzero;stroke:none;stroke-width:0.99999994;marker:none;enable-background:accumulate"
     d="M 7.3966051,4.0009481 C 5.8357702,3.9936684 4.6129539,4.0259072 3.618606,4.1817247 2.6236847,4.3375838 1.8319625,4.6293347 1.2565376,5.1729333 0.68111283,5.7165422 0.37179496,6.463651 0.20482157,7.4011352 0.13729067,7.7802013 0.10253217,8.2243483 0.07119431,8.6807772 0.02507028,9.3531543 2.206891e-5,10.086858 2.206891e-5,10.961788 v 12.079399 c 0,1.468852 0.03773784109,2.619113 0.20474433109,3.554558 0.16702856,0.935446 0.47612574,1.680547 1.0517161,2.222108 0.5755903,0.54156 1.3657787,0.832012 2.3599055,0.989181 0.9941383,0.157169 2.2185547,0.192965 3.7801619,0.192965 h 8.6034881 8.603433 c 1.56163,0 2.786024,-0.03577 3.780162,-0.192965 0.994127,-0.157169 1.784305,-0.447621 2.359906,-0.989181 0.575591,-0.541561 0.884688,-1.286662 1.051716,-2.222108 C 31.962284,25.6603 32,24.510039 32,23.041187 V 10.961788 C 32,10.086847 31.97285,9.3531647 31.92673,8.6807772 31.89539,8.2243587 31.86284,7.7801909 31.795265,7.4011352 31.628292,6.4636614 31.318974,5.7165318 30.743549,5.1729333 30.168124,4.6293451 29.376402,4.3375838 28.381481,4.1817247 27.38657,4.0258552 26.163445,3.9937515 24.601319,4.0009481 h -8.601282 z"
     id="path922"
     inkscape:export-xdpi="95.996666"
     inkscape:export-ydpi="95.996666"
     inkscape:connector-curvature="0" />
  <path
     style="display:inline;opacity:0.3;vector-effect:none;fill:#000000;fill-opacity:1;stroke:none;stroke-width:0.99999994;stroke-linecap:butt;stroke-linejoin:miter;stroke-miterlimit:4;stroke-dasharray:none;stroke-dashoffset:0;stroke-opacity:1;enable-background:new"
     d="M 6.475548,4.0009481 C 5.1545471,4.0019881 4.1025882,4.0347468 3.2425517,4.188838 2.3660632,4.3458723 1.6515381,4.6399008 1.1268386,5.1993587 0.60197371,5.7590143 0.32561576,6.5231472 0.17833888,7.4578027 0.12592518,7.7905177 0.09227012,8.160297 0.06543432,8.5495756 0.01710341,9.252642 0,10.044407 0,10.97433 v 12.050113 c 0,1.444819 0.03122751,2.583525 0.17827267,3.519065 0.14724378,0.936694 0.4229176,1.700827 0.94731913,2.26225 0.5245228,0.561528 1.2407694,0.857303 2.1180964,1.013069 0.8758159,0.155485 1.9429912,0.187328 3.2983645,0.180267 l 0.6303433,6.45e-4 V 4.0009481 Z"
     id="rect1767-6-7"
     inkscape:connector-curvature="0"
     sodipodi:nodetypes="cccccssccccccc"
     inkscape:export-xdpi="95.996666"
     inkscape:export-ydpi="95.996666" />
  <path
     transform="matrix(0,-1.039962,1.1034456,0,-147.30991,366.42766)"
     sodipodi:nodetypes="scccssscsss"
     inkscape:connector-curvature="0"
     id="path939"
     d="m 330.1929,133.99999 c -5.61538,0 -6.21958,0.57678 -6.19206,6.20352 v 7.79648 7.79648 c -0.0276,5.62673 0.57668,6.20351 6.19206,6.20351 h 11.615 c 5.6154,0 6.19208,-0.5767 6.19208,-6.20351 v -7.79648 -7.79648 c 0,-5.6268 -0.5767,-6.20352 -6.19208,-6.20352 z"
     style="color:#000000;display:inline;overflow:visible;visibility:visible;opacity:0.3;fill:none;fill-opacity:1;fill-rule:nonzero;stroke:url(#linearGradient969);stroke-width:1.8670063;stroke-miterlimit:4;stroke-dasharray:none;stroke-opacity:1;marker:none;enable-background:accumulate"
     clip-path="url(#clipPath959)"
     inkscape:export-xdpi="95.996666"
     inkscape:export-ydpi="95.996666" />
</svg>
